<svg xmlns="http://www.w3.org/2000/svg"  viewBox="0 0 32 32" width="32px" height="32px"><path d="M 5 5 L 5 23 L 13 23 L 13 24 L 8.1875 24 L 5 27 L 27 27 L 23.8125 24 L 19 24 L 19 23 L 27 23 L 27 5 Z M 7 7 L 25 7 L 25 21 L 7 21 Z M 13.28125 9.28125 L 9.28125 13.28125 L 8.59375 14 L 9.28125 14.71875 L 13.28125 18.71875 L 14.71875 17.28125 L 11.4375 14 L 14.71875 10.71875 Z M 18.71875 9.28125 L 17.28125 10.71875 L 20.5625 14 L 17.28125 17.28125 L 18.71875 18.71875 L 22.71875 14.71875 L 23.40625 14 L 22.71875 13.28125 Z"/></svg>